<?xml version="1.0" encoding="utf-8"?>
<!-- Generator: Adobe Illustrator 26.2.1, SVG Export Plug-In . SVG Version: 6.00 Build 0)  -->
<svg version="1.1" id="Layer_1" xmlns="http://www.w3.org/2000/svg" xmlns:xlink="http://www.w3.org/1999/xlink" x="0px" y="0px"
	 viewBox="0 0 847.6 302.48" style="enable-background:new 0 0 847.6 302.48;" xml:space="preserve">
<style type="text/css">
	.st0{fill:#FFFFFF;}
</style>
<g>
	<g>
		<path class="st0" d="M76.52,125.04h36.09v8.37H85.26v14.5h24.36v8.37H85.26v14.8h28.4v8.37H76.52V125.04z"/>
		<path class="st0" d="M146.16,159.27h13.97v7.32h-13.97V159.27z"/>
		<path class="st0" d="M224.84,136.1c-1.94-1-4.01-1.86-6.2-2.58c-2.19-0.72-4.29-1.08-6.28-1.08c-2.69,0-4.82,0.6-6.39,1.79
			c-1.57,1.2-2.35,2.84-2.35,4.93c0,1.49,0.53,2.8,1.61,3.92c1.07,1.12,2.47,2.09,4.18,2.92c1.72,0.82,3.52,1.61,5.42,2.35
			c1.64,0.6,3.28,1.31,4.89,2.13c1.62,0.82,3.08,1.83,4.37,3.03c1.29,1.2,2.32,2.68,3.06,4.45c0.75,1.77,1.12,3.95,1.12,6.54
			c0,2.84-0.71,5.44-2.13,7.81c-1.42,2.37-3.48,4.25-6.17,5.64c-2.69,1.39-5.95,2.09-9.79,2.09c-2.29,0-4.52-0.25-6.69-0.75
			s-4.22-1.18-6.17-2.05c-1.94-0.87-3.74-1.86-5.38-2.95l3.89-6.8c1.2,0.9,2.57,1.72,4.11,2.47s3.14,1.34,4.78,1.79
			c1.64,0.45,3.19,0.67,4.63,0.67c1.54,0,3.08-0.26,4.6-0.78c1.52-0.52,2.79-1.36,3.81-2.5c1.02-1.15,1.53-2.66,1.53-4.56
			c0-1.54-0.44-2.86-1.31-3.96c-0.87-1.09-2.03-2.05-3.47-2.88c-1.45-0.82-3.01-1.56-4.71-2.2c-1.69-0.65-3.41-1.37-5.16-2.17
			c-1.74-0.8-3.38-1.78-4.89-2.95c-1.52-1.17-2.75-2.6-3.7-4.3c-0.95-1.69-1.42-3.79-1.42-6.28c0-2.99,0.7-5.58,2.09-7.77
			c1.39-2.19,3.33-3.94,5.79-5.23c2.47-1.29,5.32-1.99,8.56-2.09c3.83,0,7.11,0.46,9.83,1.38c2.71,0.92,5.12,2.03,7.21,3.33
			L224.84,136.1z"/>
		<path class="st0" d="M234.11,179.44l24.06-56.64h0.52l24.06,56.64h-10.01l-16.89-43.04l6.2-4.18l-19.43,47.23H234.11z
			 M249.2,159.19h18.61l2.99,7.47h-24.21L249.2,159.19z"/>
		<path class="st0" d="M290.08,125.04l17.11,42.59l-5.01-0.97l15.99-41.62h10.24l-24.36,56.94l-24.36-56.94H290.08z"/>
		<path class="st0" d="M338.65,125.04h36.09v8.37h-27.35v14.5h24.36v8.37h-24.36v14.8h28.4v8.37h-37.14V125.04z"/>
		<path class="st0" d="M383.93,125.04h36.39v8.37h-14.05v46.03h-8.67v-46.03h-13.67V125.04z"/>
		<path class="st0" d="M475.55,125.04v54.4h-8.67v-23.17h-26.75v23.17h-8.74v-54.4h8.74v22.94h26.75v-22.94H475.55z"/>
		<path class="st0" d="M490.57,125.04h36.09v8.37h-27.35v14.5h24.36v8.37h-24.36v14.8h28.4v8.37h-37.14V125.04z"/>
		<path class="st0" d="M539.74,179.44v-54.4h15.47c5.38,0,9.98,0.82,13.79,2.47c3.81,1.64,6.89,3.81,9.23,6.5
			c2.34,2.69,4.05,5.69,5.12,9c1.07,3.31,1.61,6.64,1.61,9.98c0,4.09-0.72,7.75-2.17,10.98c-1.45,3.24-3.43,6.02-5.94,8.33
			c-2.52,2.32-5.41,4.09-8.67,5.31c-3.26,1.22-6.71,1.83-10.35,1.83H539.74z M548.48,171.07h7.77c2.89,0,5.53-0.41,7.92-1.23
			c2.39-0.82,4.47-2.02,6.24-3.59c1.77-1.57,3.14-3.52,4.11-5.87s1.46-5.01,1.46-8c0-3.39-0.56-6.29-1.68-8.71
			c-1.12-2.42-2.59-4.38-4.41-5.9c-1.82-1.52-3.8-2.64-5.94-3.36c-2.14-0.72-4.26-1.08-6.35-1.08h-9.12V171.07z"/>
		<path class="st0" d="M587.63,179.44l24.06-56.64h0.52l24.06,56.64h-10.01l-16.89-43.04l6.2-4.18l-19.43,47.23H587.63z
			 M602.73,159.19h18.61l2.99,7.47h-24.21L602.73,159.19z"/>
		<path class="st0" d="M637.33,125.04h36.39v8.37h-14.05v46.03H651v-46.03h-13.67V125.04z"/>
		<path class="st0" d="M684.78,125.04h36.09v8.37h-27.35v14.5h24.36v8.37h-24.36v14.8h28.4v8.37h-37.14V125.04z"/>
		<path class="st0" d="M762.49,136.1c-1.94-1-4.01-1.86-6.2-2.58c-2.19-0.72-4.29-1.08-6.28-1.08c-2.69,0-4.82,0.6-6.39,1.79
			c-1.57,1.2-2.35,2.84-2.35,4.93c0,1.49,0.53,2.8,1.61,3.92c1.07,1.12,2.47,2.09,4.18,2.92c1.72,0.82,3.52,1.61,5.42,2.35
			c1.64,0.6,3.28,1.31,4.89,2.13c1.62,0.82,3.08,1.83,4.37,3.03c1.29,1.2,2.32,2.68,3.06,4.45c0.75,1.77,1.12,3.95,1.12,6.54
			c0,2.84-0.71,5.44-2.13,7.81c-1.42,2.37-3.48,4.25-6.17,5.64c-2.69,1.39-5.95,2.09-9.79,2.09c-2.29,0-4.52-0.25-6.69-0.75
			s-4.22-1.18-6.17-2.05c-1.94-0.87-3.74-1.86-5.38-2.95l3.89-6.8c1.2,0.9,2.57,1.72,4.11,2.47s3.14,1.34,4.78,1.79
			c1.64,0.45,3.19,0.67,4.63,0.67c1.54,0,3.08-0.26,4.6-0.78c1.52-0.52,2.79-1.36,3.81-2.5c1.02-1.15,1.53-2.66,1.53-4.56
			c0-1.54-0.44-2.86-1.31-3.96c-0.87-1.09-2.03-2.05-3.47-2.88c-1.45-0.82-3.01-1.56-4.71-2.2c-1.69-0.65-3.41-1.37-5.16-2.17
			c-1.74-0.8-3.38-1.78-4.89-2.95c-1.52-1.17-2.75-2.6-3.7-4.3c-0.95-1.69-1.42-3.79-1.42-6.28c0-2.99,0.7-5.58,2.09-7.77
			c1.39-2.19,3.33-3.94,5.79-5.23c2.47-1.29,5.32-1.99,8.56-2.09c3.83,0,7.11,0.46,9.83,1.38c2.71,0.92,5.12,2.03,7.21,3.33
			L762.49,136.1z"/>
	</g>
	<g>
		<path class="st0" d="M245.58,231.8c-0.43,0.29-0.96,0.56-1.57,0.81c-0.61,0.25-1.27,0.47-1.97,0.67c-0.7,0.19-1.41,0.34-2.15,0.45
			c-0.73,0.11-1.43,0.16-2.08,0.16c-2.02,0-3.84-0.33-5.47-0.99c-1.62-0.66-3.01-1.58-4.17-2.74c-1.16-1.17-2.04-2.53-2.65-4.08
			c-0.61-1.55-0.92-3.23-0.92-5.03c0-1.95,0.34-3.74,1.03-5.38c0.69-1.64,1.63-3.05,2.83-4.24c1.2-1.19,2.6-2.11,4.19-2.76
			s3.27-0.97,5.05-0.97c1.35,0,2.62,0.17,3.81,0.5c1.19,0.34,2.27,0.79,3.23,1.37l-0.65,1.59c-0.55-0.34-1.18-0.63-1.88-0.88
			c-0.7-0.25-1.41-0.45-2.15-0.59c-0.73-0.14-1.46-0.22-2.18-0.22c-1.64,0-3.15,0.29-4.55,0.87s-2.61,1.38-3.65,2.42
			c-1.03,1.04-1.84,2.25-2.42,3.65s-0.87,2.91-0.87,4.55c0,1.59,0.27,3.06,0.81,4.42c0.54,1.36,1.31,2.55,2.31,3.57
			c1,1.02,2.2,1.82,3.59,2.38c1.4,0.57,2.95,0.85,4.66,0.85c1.01,0,2.07-0.12,3.18-0.36c1.11-0.24,2.06-0.59,2.85-1.05v-7.11h-5.77
			v-1.7h7.54V231.8z"/>
		<path class="st0" d="M262.18,220.83c0-1.8,0.34-3.5,1.01-5.07c0.67-1.58,1.61-2.97,2.82-4.19c1.2-1.21,2.59-2.17,4.17-2.85
			s3.27-1.03,5.07-1.03s3.5,0.34,5.09,1.03s2.98,1.64,4.19,2.85s2.15,2.61,2.83,4.19c0.69,1.58,1.03,3.27,1.03,5.07
			s-0.34,3.5-1.03,5.07c-0.69,1.58-1.63,2.97-2.83,4.17s-2.6,2.14-4.19,2.82s-3.28,1.01-5.09,1.01s-3.5-0.33-5.07-0.97
			s-2.97-1.56-4.17-2.74c-1.2-1.18-2.14-2.56-2.82-4.15C262.52,224.44,262.18,222.7,262.18,220.83z M263.98,220.86
			c0,1.56,0.29,3.03,0.87,4.4c0.58,1.37,1.38,2.57,2.42,3.61c1.03,1.04,2.23,1.85,3.59,2.44c1.36,0.59,2.81,0.88,4.35,0.88
			c1.59,0,3.07-0.29,4.44-0.88c1.37-0.59,2.57-1.4,3.61-2.44c1.03-1.03,1.85-2.24,2.44-3.61c0.59-1.37,0.88-2.85,0.88-4.44
			c0-1.56-0.29-3.04-0.88-4.42c-0.59-1.38-1.4-2.6-2.44-3.64c-1.04-1.05-2.24-1.87-3.61-2.47s-2.84-0.9-4.4-0.9
			c-1.59,0-3.07,0.31-4.44,0.92c-1.37,0.61-2.57,1.45-3.59,2.51c-1.02,1.06-1.82,2.28-2.38,3.66
			C264.27,217.86,263.98,219.32,263.98,220.86z"/>
		<path class="st0" d="M333.57,207.98c1.59,0,2.98,0.27,4.17,0.81c1.19,0.54,2.12,1.35,2.78,2.42c0.66,1.07,0.99,2.41,0.99,4.02
			c0,0.96-0.15,1.9-0.45,2.8c-0.3,0.9-0.78,1.71-1.44,2.44c-0.66,0.72-1.5,1.3-2.53,1.73c-1.02,0.43-2.26,0.65-3.7,0.65h-3.97v10.76
			h-1.77v-25.62H333.57z M333.39,221.15c1.25,0,2.29-0.2,3.12-0.59c0.83-0.4,1.48-0.9,1.95-1.52c0.47-0.61,0.81-1.26,1.01-1.93
			c0.2-0.67,0.31-1.3,0.31-1.88c0-0.82-0.13-1.56-0.4-2.24c-0.27-0.67-0.66-1.26-1.17-1.75c-0.52-0.49-1.15-0.88-1.9-1.15
			s-1.6-0.42-2.56-0.42h-4.33v11.48H333.39z"/>
		<path class="st0" d="M353.92,233.6l10.83-26.74h0.14l10.83,26.74h-1.99l-9.42-23.93l1.23-0.69l-9.85,24.62H353.92z M359.16,223.46
			h11.37l0.5,1.66h-12.31L359.16,223.46z"/>
		<path class="st0" d="M398.39,207.98c1.59,0,2.98,0.27,4.17,0.81c1.19,0.54,2.12,1.35,2.78,2.42c0.66,1.07,0.99,2.41,0.99,4.02
			c0,0.96-0.15,1.9-0.45,2.8c-0.3,0.9-0.78,1.71-1.44,2.44c-0.66,0.72-1.5,1.3-2.53,1.73c-1.02,0.43-2.26,0.65-3.7,0.65h-3.97v10.76
			h-1.77v-25.62H398.39z M398.21,221.15c1.25,0,2.29-0.2,3.12-0.59c0.83-0.4,1.48-0.9,1.95-1.52c0.47-0.61,0.81-1.26,1.01-1.93
			c0.2-0.67,0.31-1.3,0.31-1.88c0-0.82-0.13-1.56-0.4-2.24c-0.27-0.67-0.66-1.26-1.17-1.75c-0.52-0.49-1.15-0.88-1.9-1.15
			s-1.6-0.42-2.56-0.42h-4.33v11.48H398.21z"/>
		<path class="st0" d="M423.29,207.98h15.81v1.7h-14.04v10.18h12.63v1.7h-12.63v10.36h14.54v1.7h-16.31V207.98z"/>
		<path class="st0" d="M463.03,207.98c0.96,0,1.92,0.14,2.87,0.42c0.95,0.28,1.82,0.71,2.6,1.3c0.78,0.59,1.41,1.34,1.89,2.26
			c0.48,0.92,0.72,2.01,0.72,3.28c0,0.96-0.14,1.9-0.43,2.8c-0.29,0.9-0.76,1.71-1.41,2.44c-0.65,0.72-1.49,1.3-2.53,1.73
			c-1.03,0.43-2.31,0.65-3.83,0.65h-3.97v10.76h-1.77v-25.62H463.03z M462.81,221.15c1.27,0,2.33-0.18,3.18-0.54
			c0.84-0.36,1.5-0.83,1.99-1.41c0.48-0.58,0.82-1.21,1.03-1.9c0.2-0.69,0.31-1.35,0.31-2c0-0.77-0.14-1.49-0.42-2.17
			s-0.68-1.27-1.21-1.79c-0.53-0.52-1.17-0.93-1.91-1.23s-1.58-0.45-2.49-0.45h-4.33v11.48H462.81z M466.49,221.95l7.11,11.66h-2.06
			l-7.15-11.62L466.49,221.95z"/>
		<path class="st0" d="M490.86,207.98h1.77v23.93h14.04v1.7h-15.81V207.98z"/>
		<path class="st0" d="M523.45,207.98h15.81v1.7h-14.04v10.18h12.63v1.7h-12.63v10.36h14.54v1.7h-16.31V207.98z"/>
		<path class="st0" d="M570.15,210.87c-0.75-0.36-1.66-0.7-2.74-1.01c-1.08-0.31-2.17-0.47-3.25-0.47c-1.68,0-3.03,0.42-4.04,1.26
			c-1.01,0.84-1.52,1.9-1.52,3.18c0,0.96,0.29,1.76,0.87,2.4c0.58,0.64,1.33,1.18,2.27,1.62s1.94,0.87,3,1.28
			c0.84,0.31,1.68,0.66,2.51,1.05s1.58,0.85,2.26,1.41s1.21,1.24,1.61,2.06c0.4,0.82,0.6,1.83,0.6,3.03c0,1.42-0.34,2.68-1.01,3.77
			c-0.67,1.1-1.61,1.94-2.82,2.54s-2.6,0.9-4.19,0.9c-1.28,0-2.44-0.16-3.48-0.47c-1.05-0.31-1.96-0.68-2.74-1.1
			c-0.78-0.42-1.4-0.78-1.86-1.06l0.83-1.44c0.53,0.39,1.17,0.77,1.93,1.16c0.76,0.38,1.58,0.71,2.47,0.97
			c0.89,0.26,1.78,0.4,2.67,0.4c1.03,0,2.04-0.2,3.01-0.61c0.97-0.41,1.78-1.03,2.42-1.86s0.96-1.88,0.96-3.16
			c0-1.23-0.3-2.22-0.9-2.98c-0.6-0.76-1.37-1.38-2.31-1.86c-0.94-0.48-1.94-0.92-3-1.3c-0.82-0.31-1.64-0.64-2.45-0.99
			c-0.82-0.35-1.56-0.77-2.24-1.26s-1.21-1.09-1.61-1.79c-0.4-0.7-0.6-1.54-0.6-2.53c0-1.23,0.31-2.3,0.94-3.21
			c0.62-0.91,1.47-1.63,2.54-2.15c1.07-0.52,2.29-0.79,3.66-0.81c1.2,0,2.42,0.16,3.66,0.47c1.24,0.31,2.32,0.71,3.23,1.19
			L570.15,210.87z"/>
		<path class="st0" d="M601.95,210.87c-0.75-0.36-1.66-0.7-2.74-1.01c-1.08-0.31-2.17-0.47-3.25-0.47c-1.68,0-3.03,0.42-4.04,1.26
			c-1.01,0.84-1.52,1.9-1.52,3.18c0,0.96,0.29,1.76,0.87,2.4c0.58,0.64,1.33,1.18,2.27,1.62s1.94,0.87,3,1.28
			c0.84,0.31,1.68,0.66,2.51,1.05s1.58,0.85,2.26,1.41s1.21,1.24,1.61,2.06c0.4,0.82,0.6,1.83,0.6,3.03c0,1.42-0.34,2.68-1.01,3.77
			c-0.67,1.1-1.61,1.94-2.82,2.54s-2.6,0.9-4.19,0.9c-1.28,0-2.44-0.16-3.48-0.47c-1.05-0.31-1.96-0.68-2.74-1.1
			c-0.78-0.42-1.4-0.78-1.86-1.06l0.83-1.44c0.53,0.39,1.17,0.77,1.93,1.16c0.76,0.38,1.58,0.71,2.47,0.97
			c0.89,0.26,1.78,0.4,2.67,0.4c1.03,0,2.04-0.2,3.01-0.61c0.97-0.41,1.78-1.03,2.42-1.86s0.96-1.88,0.96-3.16
			c0-1.23-0.3-2.22-0.9-2.98c-0.6-0.76-1.37-1.38-2.31-1.86c-0.94-0.48-1.94-0.92-3-1.3c-0.82-0.31-1.64-0.64-2.45-0.99
			c-0.82-0.35-1.56-0.77-2.24-1.26s-1.21-1.09-1.61-1.79c-0.4-0.7-0.6-1.54-0.6-2.53c0-1.23,0.31-2.3,0.94-3.21
			c0.62-0.91,1.47-1.63,2.54-2.15c1.07-0.52,2.29-0.79,3.66-0.81c1.2,0,2.42,0.16,3.66,0.47c1.24,0.31,2.32,0.71,3.23,1.19
			L601.95,210.87z"/>
	</g>
	<g>
		<g>
			<path class="st0" d="M630.91,235.17c0,0.89,0.72,1.62,1.62,1.62h96.96c0.89,0,1.62-0.72,1.62-1.62v-3.55v-40.15h-3.24v40.15v1.93
				h-93.72v-42.07h-3.24V235.17z M727.44,40.33h-88.55h-4.3c-6.88,0-12.48,5.6-12.48,12.48v58.93h3.24V52.82
				c0-3.65,2.13-6.8,5.21-8.3c1.22-0.6,2.59-0.94,4.04-0.94h92.85c5.1,0,9.24,4.15,9.24,9.24v58.93h3.24V52.82
				C739.92,45.94,734.32,40.33,727.44,40.33z M731.11,111.75V59.8c0-0.89-0.72-1.62-1.62-1.62h-92.51h-4.45
				c-0.89,0-1.62,0.72-1.62,1.62v51.95h3.24V61.42h2.83h90.89v50.33H731.11z M672.41,241.86c-2.84,0-5.15,2.31-5.15,5.15
				c0,2.84,2.31,5.15,5.15,5.15h17.21c2.84,0,5.15-2.31,5.15-5.15c0-2.84-2.31-5.15-5.15-5.15H672.41z M691.53,247.01
				c0,1.06-0.86,1.91-1.91,1.91h-17.21c-1.06,0-1.91-0.86-1.91-1.91c0-1.05,0.86-1.91,1.91-1.91h17.21
				C690.67,245.1,691.53,245.95,691.53,247.01z M736.68,250.41c0,2.14-0.74,4.11-1.97,5.68c-1.69,2.16-4.32,3.56-7.28,3.56h-92.85
				c-5.1,0-9.24-4.15-9.24-9.24v-58.93h-3.24v58.93c0,6.88,5.6,12.48,12.48,12.48h92.85c6.88,0,12.48-5.6,12.48-12.48v-0.03v-58.9
				h-3.24V250.41z"/>
		</g>
	</g>
</g>
</svg>
