<?xml version="1.0" encoding="utf-8"?>
<!-- Generator: Adobe Illustrator 26.2.1, SVG Export Plug-In . SVG Version: 6.00 Build 0)  -->
<svg version="1.1" id="Layer_1" xmlns="http://www.w3.org/2000/svg" xmlns:xlink="http://www.w3.org/1999/xlink" x="0px" y="0px"
	 viewBox="0 0 1201.7 245.45" style="enable-background:new 0 0 1201.7 245.45;" xml:space="preserve">
<g>
	<g>
		<path d="M26.26,33.87h60.16v13.95H40.83v24.17h40.61v13.95H40.83v24.66h47.33v13.95H26.26V33.87z"/>
		<path d="M142.35,90.92h23.29v12.21h-23.29V90.92z"/>
		<path d="M273.51,52.3c-3.24-1.66-6.69-3.09-10.34-4.3c-3.65-1.2-7.14-1.81-10.46-1.81c-4.48,0-8.03,1-10.65,2.99
			c-2.62,1.99-3.92,4.73-3.92,8.22c0,2.49,0.89,4.67,2.68,6.54c1.78,1.87,4.11,3.49,6.98,4.86c2.86,1.37,5.87,2.68,9.03,3.92
			c2.74,1,5.46,2.18,8.16,3.55c2.7,1.37,5.13,3.05,7.29,5.04c2.16,1.99,3.86,4.46,5.11,7.41c1.25,2.95,1.87,6.58,1.87,10.9
			c0,4.73-1.18,9.07-3.55,13.02c-2.37,3.95-5.79,7.08-10.28,9.41c-4.48,2.32-9.92,3.49-16.32,3.49c-3.82,0-7.54-0.42-11.15-1.25
			c-3.61-0.83-7.04-1.97-10.28-3.42c-3.24-1.45-6.23-3.09-8.97-4.92l6.48-11.33c1.99,1.49,4.28,2.86,6.85,4.11
			c2.57,1.25,5.23,2.24,7.97,2.99c2.74,0.75,5.31,1.12,7.72,1.12c2.57,0,5.13-0.44,7.66-1.31c2.53-0.87,4.65-2.26,6.35-4.17
			c1.7-1.91,2.55-4.44,2.55-7.6c0-2.57-0.73-4.77-2.18-6.6c-1.45-1.82-3.38-3.42-5.79-4.8c-2.41-1.37-5.03-2.59-7.85-3.67
			c-2.82-1.08-5.69-2.28-8.59-3.61c-2.91-1.33-5.63-2.97-8.16-4.92c-2.53-1.95-4.59-4.34-6.17-7.16c-1.58-2.82-2.37-6.31-2.37-10.46
			c0-4.98,1.16-9.3,3.49-12.95c2.32-3.65,5.54-6.56,9.65-8.72c4.11-2.16,8.86-3.32,14.26-3.49c6.39,0,11.85,0.77,16.38,2.3
			c4.53,1.54,8.53,3.38,12.02,5.54L273.51,52.3z"/>
		<path d="M288.95,124.55l40.11-94.42h0.87l40.11,94.42h-16.69L325.2,52.8l10.34-6.98l-32.39,78.72H288.95z M314.11,90.79h31.02
			l4.98,12.46h-40.36L314.11,90.79z"/>
		<path d="M382.25,33.87l28.52,71l-8.34-1.62l26.66-69.38h17.06l-40.61,94.92l-40.61-94.92H382.25z"/>
		<path d="M463.21,33.87h60.16v13.95h-45.59v24.17h40.61v13.95h-40.61v24.66h47.33v13.95h-61.91V33.87z"/>
		<path d="M538.69,33.87h60.66v13.95h-23.42v76.73h-14.45V47.82h-22.79V33.87z"/>
		<path d="M691.4,33.87v90.68h-14.45V85.94h-44.59v38.61h-14.57V33.87h14.57v38.24h44.59V33.87H691.4z"/>
		<path d="M716.44,33.87h60.16v13.95h-45.59v24.17h40.61v13.95h-40.61v24.66h47.33v13.95h-61.91V33.87z"/>
		<path d="M798.4,124.55V33.87h25.78c8.97,0,16.63,1.37,22.98,4.11c6.35,2.74,11.48,6.35,15.38,10.84c3.9,4.48,6.75,9.49,8.53,15.01
			c1.78,5.52,2.68,11.07,2.68,16.63c0,6.81-1.2,12.91-3.61,18.31c-2.41,5.4-5.71,10.03-9.9,13.89c-4.19,3.86-9.01,6.81-14.45,8.84
			c-5.44,2.04-11.19,3.05-17.25,3.05H798.4z M812.97,110.6h12.95c4.82,0,9.22-0.69,13.2-2.06c3.98-1.37,7.45-3.36,10.4-5.98
			c2.95-2.62,5.23-5.87,6.85-9.78c1.62-3.9,2.43-8.35,2.43-13.33c0-5.65-0.93-10.48-2.8-14.51c-1.87-4.03-4.32-7.31-7.35-9.84
			c-3.03-2.53-6.33-4.4-9.9-5.6c-3.57-1.2-7.1-1.81-10.59-1.81h-15.2V110.6z"/>
		<path d="M878.24,124.55l40.11-94.42h0.87l40.11,94.42h-16.69L914.49,52.8l10.34-6.98l-32.39,78.72H878.24z M903.4,90.79h31.02
			l4.98,12.46h-40.36L903.4,90.79z"/>
		<path d="M961.07,33.87h60.66v13.95h-23.42v76.73h-14.45V47.82h-22.79V33.87z"/>
		<path d="M1040.17,33.87h60.16v13.95h-45.59v24.17h40.61v13.95h-40.61v24.66h47.33v13.95h-61.91V33.87z"/>
		<path d="M1169.71,52.3c-3.24-1.66-6.69-3.09-10.34-4.3c-3.65-1.2-7.14-1.81-10.46-1.81c-4.48,0-8.03,1-10.65,2.99
			c-2.62,1.99-3.92,4.73-3.92,8.22c0,2.49,0.89,4.67,2.68,6.54c1.78,1.87,4.11,3.49,6.98,4.86c2.86,1.37,5.87,2.68,9.03,3.92
			c2.74,1,5.46,2.18,8.16,3.55c2.7,1.37,5.13,3.05,7.29,5.04c2.16,1.99,3.86,4.46,5.11,7.41c1.25,2.95,1.87,6.58,1.87,10.9
			c0,4.73-1.18,9.07-3.55,13.02c-2.37,3.95-5.79,7.08-10.28,9.41c-4.48,2.32-9.92,3.49-16.32,3.49c-3.82,0-7.54-0.42-11.15-1.25
			c-3.61-0.83-7.04-1.97-10.28-3.42c-3.24-1.45-6.23-3.09-8.97-4.92l6.48-11.33c1.99,1.49,4.28,2.86,6.85,4.11s5.23,2.24,7.97,2.99
			c2.74,0.75,5.31,1.12,7.72,1.12c2.57,0,5.13-0.44,7.66-1.31c2.53-0.87,4.65-2.26,6.35-4.17c1.7-1.91,2.55-4.44,2.55-7.6
			c0-2.57-0.73-4.77-2.18-6.6c-1.45-1.82-3.38-3.42-5.79-4.8c-2.41-1.37-5.03-2.59-7.85-3.67c-2.82-1.08-5.69-2.28-8.59-3.61
			c-2.91-1.33-5.63-2.97-8.16-4.92c-2.53-1.95-4.59-4.34-6.17-7.16c-1.58-2.82-2.37-6.31-2.37-10.46c0-4.98,1.16-9.3,3.49-12.95
			c2.32-3.65,5.54-6.56,9.65-8.72c4.11-2.16,8.86-3.32,14.26-3.49c6.39,0,11.85,0.77,16.38,2.3c4.53,1.54,8.53,3.38,12.02,5.54
			L1169.71,52.3z"/>
	</g>
	<g>
		<path d="M308.07,211.82c-0.72,0.48-1.59,0.93-2.62,1.35c-1.02,0.42-2.12,0.79-3.28,1.11c-1.16,0.32-2.36,0.57-3.58,0.75
			c-1.22,0.18-2.38,0.27-3.46,0.27c-3.37,0-6.41-0.55-9.11-1.66c-2.71-1.1-5.02-2.63-6.95-4.57c-1.93-1.94-3.4-4.21-4.42-6.8
			c-1.02-2.59-1.54-5.38-1.54-8.39c0-3.25,0.57-6.24,1.71-8.96c1.14-2.73,2.72-5.08,4.72-7.07c2-1.98,4.33-3.52,6.98-4.6
			c2.65-1.08,5.45-1.62,8.42-1.62c2.25,0,4.36,0.28,6.35,0.84c1.99,0.56,3.78,1.32,5.38,2.29l-1.08,2.65
			c-0.92-0.56-1.97-1.05-3.13-1.47c-1.16-0.42-2.36-0.75-3.58-0.99c-1.22-0.24-2.44-0.36-3.64-0.36c-2.73,0-5.25,0.48-7.58,1.44
			c-2.33,0.96-4.35,2.31-6.08,4.03c-1.72,1.73-3.07,3.75-4.03,6.08c-0.96,2.33-1.44,4.85-1.44,7.58c0,2.65,0.45,5.1,1.35,7.37
			c0.9,2.27,2.18,4.25,3.85,5.96c1.66,1.7,3.66,3.03,5.99,3.97c2.33,0.94,4.91,1.41,7.76,1.41c1.68,0,3.45-0.2,5.29-0.6
			c1.84-0.4,3.43-0.98,4.75-1.75v-11.85h-9.63v-2.83h12.57V211.82z"/>
		<path d="M335.74,193.53c0-3.01,0.56-5.83,1.68-8.45c1.12-2.63,2.69-4.95,4.69-6.98c2-2.03,4.32-3.61,6.95-4.75
			c2.63-1.14,5.45-1.71,8.45-1.71c3.01,0,5.84,0.57,8.48,1.71c2.65,1.14,4.97,2.73,6.98,4.75c2.01,2.03,3.58,4.35,4.72,6.98
			c1.14,2.63,1.71,5.45,1.71,8.45c0,3.01-0.57,5.83-1.71,8.45c-1.14,2.63-2.72,4.94-4.72,6.95c-2.01,2.01-4.33,3.57-6.98,4.69
			s-5.47,1.68-8.48,1.68c-3.01,0-5.83-0.54-8.45-1.62s-4.94-2.61-6.95-4.57c-2.01-1.96-3.57-4.27-4.69-6.92
			C336.3,199.55,335.74,196.66,335.74,193.53z M338.75,193.59c0,2.61,0.48,5.05,1.44,7.34c0.96,2.29,2.31,4.29,4.03,6.01
			c1.72,1.73,3.72,3.08,5.99,4.06c2.26,0.98,4.68,1.47,7.25,1.47c2.65,0,5.11-0.49,7.4-1.47c2.29-0.98,4.29-2.34,6.02-4.06
			c1.72-1.72,3.08-3.73,4.06-6.01c0.98-2.29,1.47-4.75,1.47-7.4c0-2.61-0.49-5.06-1.47-7.37c-0.98-2.31-2.34-4.33-4.06-6.08
			c-1.73-1.75-3.73-3.12-6.02-4.12c-2.29-1-4.73-1.5-7.34-1.5c-2.65,0-5.11,0.51-7.4,1.53c-2.29,1.02-4.28,2.42-5.99,4.18
			c-1.71,1.77-3.03,3.8-3.97,6.11C339.22,188.59,338.75,191.03,338.75,193.59z"/>
		<path d="M454.74,172.12c2.65,0,4.96,0.45,6.95,1.35c1.99,0.9,3.53,2.25,4.63,4.03c1.1,1.79,1.65,4.02,1.65,6.71
			c0,1.61-0.25,3.16-0.75,4.66c-0.5,1.5-1.3,2.86-2.41,4.06c-1.1,1.2-2.51,2.17-4.21,2.89c-1.71,0.72-3.76,1.08-6.17,1.08h-6.62
			v17.93h-2.95v-42.71H454.74z M454.44,194.08c2.08,0,3.82-0.33,5.2-0.99c1.38-0.66,2.47-1.5,3.25-2.53
			c0.78-1.02,1.34-2.1,1.68-3.22c0.34-1.12,0.51-2.17,0.51-3.13c0-1.36-0.22-2.61-0.66-3.73c-0.44-1.12-1.09-2.1-1.96-2.92
			c-0.86-0.82-1.92-1.46-3.16-1.92c-1.24-0.46-2.67-0.69-4.27-0.69h-7.22v19.13H454.44z"/>
		<path d="M488.67,214.83l18.05-44.58h0.24l18.05,44.58h-3.31L506,174.94l2.04-1.14l-16.42,41.03H488.67z M497.39,197.93h18.95
			l0.84,2.77h-20.52L497.39,197.93z"/>
		<path d="M562.79,172.12c2.65,0,4.96,0.45,6.95,1.35c1.99,0.9,3.53,2.25,4.63,4.03c1.1,1.79,1.65,4.02,1.65,6.71
			c0,1.61-0.25,3.16-0.75,4.66c-0.5,1.5-1.3,2.86-2.41,4.06c-1.1,1.2-2.51,2.17-4.21,2.89c-1.71,0.72-3.76,1.08-6.17,1.08h-6.62
			v17.93h-2.95v-42.71H562.79z M562.49,194.08c2.08,0,3.82-0.33,5.2-0.99c1.38-0.66,2.47-1.5,3.25-2.53
			c0.78-1.02,1.34-2.1,1.68-3.22c0.34-1.12,0.51-2.17,0.51-3.13c0-1.36-0.22-2.61-0.66-3.73c-0.44-1.12-1.09-2.1-1.96-2.92
			c-0.86-0.82-1.92-1.46-3.16-1.92c-1.24-0.46-2.67-0.69-4.27-0.69h-7.22v19.13H562.49z"/>
		<path d="M604.3,172.12h26.35v2.83h-23.4v16.97h21.06v2.83h-21.06V212h24.24v2.83H604.3V172.12z"/>
		<path d="M670.54,172.12c1.6,0,3.2,0.23,4.78,0.69c1.58,0.46,3.03,1.18,4.33,2.17c1.3,0.98,2.36,2.24,3.16,3.76
			c0.8,1.53,1.2,3.35,1.2,5.47c0,1.61-0.24,3.16-0.72,4.66c-0.48,1.5-1.26,2.86-2.35,4.06c-1.08,1.2-2.49,2.17-4.21,2.89
			c-1.72,0.72-3.85,1.08-6.38,1.08h-6.62v17.93h-2.95v-42.71H670.54z M670.17,194.08c2.12,0,3.89-0.3,5.29-0.9
			c1.4-0.6,2.51-1.38,3.31-2.35c0.8-0.96,1.37-2.02,1.71-3.16c0.34-1.14,0.51-2.26,0.51-3.34c0-1.28-0.23-2.49-0.69-3.61
			c-0.46-1.12-1.13-2.12-2.02-2.98c-0.88-0.86-1.95-1.54-3.19-2.04c-1.24-0.5-2.63-0.75-4.15-0.75h-7.22v19.13H670.17z
			 M676.31,195.4l11.85,19.43h-3.43l-11.91-19.37L676.31,195.4z"/>
		<path d="M716.92,172.12h2.95V212h23.4v2.83h-26.35V172.12z"/>
		<path d="M771.24,172.12h26.35v2.83h-23.4v16.97h21.06v2.83h-21.06V212h24.24v2.83h-27.19V172.12z"/>
		<path d="M849.09,176.93c-1.24-0.6-2.77-1.16-4.57-1.68c-1.81-0.52-3.61-0.78-5.42-0.78c-2.81,0-5.05,0.7-6.74,2.11
			c-1.68,1.4-2.53,3.17-2.53,5.29c0,1.61,0.48,2.94,1.44,4c0.96,1.06,2.23,1.96,3.79,2.71c1.56,0.74,3.23,1.45,4.99,2.14
			c1.4,0.52,2.8,1.1,4.18,1.75c1.38,0.64,2.64,1.42,3.76,2.35c1.12,0.92,2.02,2.07,2.68,3.43c0.66,1.36,0.99,3.05,0.99,5.05
			c0,2.37-0.56,4.46-1.68,6.29c-1.12,1.83-2.69,3.24-4.69,4.24c-2.01,1-4.33,1.5-6.98,1.5c-2.13,0-4.06-0.26-5.81-0.78
			c-1.74-0.52-3.27-1.13-4.57-1.83c-1.3-0.7-2.34-1.29-3.1-1.77l1.38-2.41c0.88,0.64,1.96,1.28,3.22,1.93
			c1.26,0.64,2.64,1.18,4.12,1.62c1.48,0.44,2.97,0.66,4.45,0.66c1.72,0,3.4-0.34,5.02-1.02c1.62-0.68,2.97-1.71,4.03-3.1
			s1.6-3.14,1.6-5.26c0-2.05-0.5-3.7-1.5-4.96c-1-1.26-2.29-2.3-3.85-3.1c-1.56-0.8-3.23-1.53-4.99-2.17
			c-1.36-0.52-2.73-1.07-4.09-1.65c-1.36-0.58-2.61-1.28-3.73-2.11c-1.12-0.82-2.02-1.81-2.68-2.98c-0.66-1.16-0.99-2.57-0.99-4.21
			c0-2.05,0.52-3.83,1.56-5.36c1.04-1.52,2.46-2.72,4.24-3.58c1.78-0.86,3.82-1.31,6.11-1.35c2,0,4.04,0.26,6.11,0.78
			c2.07,0.52,3.86,1.18,5.38,1.99L849.09,176.93z"/>
		<path d="M902.1,176.93c-1.24-0.6-2.77-1.16-4.57-1.68c-1.81-0.52-3.61-0.78-5.42-0.78c-2.81,0-5.05,0.7-6.74,2.11
			c-1.68,1.4-2.53,3.17-2.53,5.29c0,1.61,0.48,2.94,1.44,4c0.96,1.06,2.23,1.96,3.79,2.71c1.56,0.74,3.23,1.45,4.99,2.14
			c1.4,0.52,2.8,1.1,4.18,1.75c1.38,0.64,2.64,1.42,3.76,2.35c1.12,0.92,2.02,2.07,2.68,3.43c0.66,1.36,0.99,3.05,0.99,5.05
			c0,2.37-0.56,4.46-1.68,6.29c-1.12,1.83-2.69,3.24-4.69,4.24c-2.01,1-4.33,1.5-6.98,1.5c-2.13,0-4.06-0.26-5.81-0.78
			c-1.74-0.52-3.27-1.13-4.57-1.83c-1.3-0.7-2.34-1.29-3.1-1.77l1.38-2.41c0.88,0.64,1.96,1.28,3.22,1.93
			c1.26,0.64,2.64,1.18,4.12,1.62c1.48,0.44,2.97,0.66,4.45,0.66c1.72,0,3.4-0.34,5.02-1.02c1.62-0.68,2.97-1.71,4.03-3.1
			s1.6-3.14,1.6-5.26c0-2.05-0.5-3.7-1.5-4.96c-1-1.26-2.29-2.3-3.85-3.1c-1.56-0.8-3.23-1.53-4.99-2.17
			c-1.36-0.52-2.73-1.07-4.09-1.65c-1.36-0.58-2.61-1.28-3.73-2.11c-1.12-0.82-2.02-1.81-2.68-2.98c-0.66-1.16-0.99-2.57-0.99-4.21
			c0-2.05,0.52-3.83,1.56-5.36c1.04-1.52,2.46-2.72,4.24-3.58c1.78-0.86,3.82-1.31,6.11-1.35c2,0,4.04,0.26,6.11,0.78
			c2.07,0.52,3.86,1.18,5.38,1.99L902.1,176.93z"/>
	</g>
</g>
</svg>
