<svg width="24" height="24" viewBox="0 0 24 24" fill="none" xmlns="http://www.w3.org/2000/svg">
<path d="M22.5005 12.2332C22.5005 11.3699 22.4291 10.7399 22.2744 10.0865H12.2148V13.9832H18.1196C18.0006 14.9515 17.3577 16.4099 15.9291 17.3898L15.9091 17.5203L19.0897 19.935L19.3101 19.9565C21.3338 18.1249 22.5005 15.4298 22.5005 12.2332Z" fill="#4285F4"/>
<path d="M12.214 22.5C15.1068 22.5 17.5353 21.5666 19.3092 19.9566L15.9282 17.3899C15.0235 18.0082 13.8092 18.4399 12.214 18.4399C9.38069 18.4399 6.97596 16.6083 6.11874 14.0766L5.99309 14.087L2.68583 16.5954L2.64258 16.7132C4.40446 20.1432 8.0235 22.5 12.214 22.5Z" fill="#34A853"/>
<path d="M6.12095 14.0767C5.89476 13.4233 5.76386 12.7233 5.76386 12C5.76386 11.2766 5.89476 10.5766 6.10905 9.92331L6.10306 9.78417L2.75435 7.23553L2.64478 7.28661C1.91862 8.70996 1.50195 10.3083 1.50195 12C1.50195 13.6916 1.91862 15.2899 2.64478 16.7133L6.12095 14.0767Z" fill="#FBBC05"/>
<path d="M12.2141 5.55997C14.2259 5.55997 15.583 6.41163 16.3569 7.12335L19.3807 4.23C17.5236 2.53834 15.1069 1.5 12.2141 1.5C8.02353 1.5 4.40447 3.85665 2.64258 7.28662L6.10686 9.92332C6.97598 7.39166 9.38073 5.55997 12.2141 5.55997Z" fill="#EB4335"/>
</svg>
