<svg width="199" height="48" viewBox="0 0 199 48" fill="none" xmlns="http://www.w3.org/2000/svg">
<g clip-path="url(#clip0_480_51341)">
<path d="M50.7072 20.7131C51.008 21.1428 51.3948 21.4866 51.8675 21.7444C52.3402 22.0022 52.9847 22.346 53.8442 22.7328C55.0044 23.2914 55.8639 23.7211 56.4225 24.0649C57.1101 24.4946 57.6687 25.0533 58.0984 25.6979C58.5711 26.3424 58.786 27.2019 58.786 28.1902C58.786 29.0497 58.5711 29.8662 58.1414 30.5967C57.7117 31.3272 57.1101 31.9288 56.2936 32.3586C55.5201 32.8312 54.6607 33.0461 53.6293 33.0461C52.3402 33.0461 51.3518 32.8742 50.6213 32.5304C49.8907 32.1867 49.2032 31.714 48.5586 31.1553V29.2216H48.7305C49.0743 29.8232 49.3751 30.2959 49.6759 30.7256C49.9337 31.1124 50.4494 31.4991 51.1369 31.9288C51.7815 32.3156 52.598 32.5304 53.6293 32.5304C54.7466 32.5304 55.649 32.2296 56.2936 31.628C56.9382 31.0264 57.282 30.167 57.282 29.0927C57.282 28.534 57.1101 28.0184 56.8093 27.5886C56.5085 27.1589 56.0787 26.8151 55.606 26.4714C55.0904 26.1276 54.4028 25.7838 53.5863 25.397C52.512 24.8384 51.6526 24.3657 51.094 24.0219C50.4494 23.6352 49.8907 23.0765 49.461 22.389C48.9883 21.7444 48.7735 20.9279 48.7735 19.9396C48.7735 19.0372 48.9883 18.3066 49.3751 17.6191C49.7618 16.9315 50.3205 16.4158 51.008 16.0721C51.6956 15.6853 52.512 15.5134 53.4145 15.5134C54.0161 15.5134 54.6606 15.5994 55.3912 15.8572C56.1647 16.115 56.8522 16.3729 57.3679 16.7167V18.6934H57.196C56.8522 18.0058 56.3366 17.4042 55.649 16.8456C54.9615 16.3299 54.188 16.0721 53.2855 16.0721C52.3831 16.0721 51.6096 16.3729 51.051 17.0175C50.4923 17.6191 50.1915 18.4355 50.1915 19.3809C50.2345 19.8536 50.3634 20.2833 50.7072 20.7131Z" fill="#CB9F59"/>
<path d="M59.3018 32.6594C59.5166 32.5734 59.7315 32.4015 59.9463 32.1437C60.2042 31.7999 60.419 31.4991 60.505 31.2843L67.4235 15.3845H67.6813L74.2131 31.2843C74.428 31.7999 74.8577 32.2726 75.5023 32.6594V32.8313H71.4629V32.6594C71.6348 32.5734 71.8067 32.4445 71.8926 32.2296C72.0215 32.0148 72.0645 31.7999 72.0645 31.628C72.0645 31.4991 72.0215 31.4132 71.9786 31.3272L70.6464 28.0613H62.5677L61.1496 31.3272C61.0636 31.5421 61.0206 31.714 61.0206 31.8859C61.0206 32.2726 61.1925 32.5304 61.4933 32.7023V32.8742H59.3018V32.6594ZM70.3886 27.4597L66.693 18.4785L62.7825 27.4597H70.3886Z" fill="#CB9F59"/>
<path d="M88.4369 15.9431C88.222 16.0291 88.0071 16.158 87.7493 16.4158C87.5344 16.6307 87.3626 16.9315 87.1907 17.2753L80.3151 33.175H80.0573L73.4825 17.2753C73.3536 16.9745 73.1387 16.6737 72.9239 16.4588C72.666 16.201 72.4512 16.0291 72.2363 15.9002V15.6853H76.2757V15.9002C76.1038 15.9861 75.9749 16.115 75.846 16.3299C75.7171 16.5447 75.6741 16.7596 75.6741 16.9315C75.6741 17.0174 75.7171 17.1464 75.7601 17.2753L81.0027 30.081L86.5891 17.2753C86.675 17.1034 86.718 16.8885 86.718 16.7166C86.718 16.3299 86.5461 16.0721 86.2453 15.9002V15.6853H88.4369V15.9431Z" fill="#CB9F59"/>
<path d="M90.4136 32.6593C90.9722 32.3585 91.2301 31.9718 91.2301 31.4561V17.1034C91.2301 16.6307 90.9722 16.201 90.4136 15.9002V15.6853H101.329L101.758 17.1464H101.586C100.985 16.5447 100.34 16.201 99.7386 16.201H93.3357V22.1741H97.2891C97.9337 22.1741 98.4064 21.9163 98.7072 21.3576H98.9221V23.5492H98.7072C98.3634 22.9906 97.9337 22.7328 97.2891 22.7328H93.3357V32.2726H100.727C101.329 32.2726 101.93 31.9718 102.575 31.3272H102.747L102.317 32.7883H90.4136V32.6593Z" fill="#CB9F59"/>
<path d="M142.453 32.8312C143.012 32.4875 143.27 32.0148 143.27 31.4132V17.1464C143.27 16.5448 143.012 16.0721 142.453 15.7713V15.5564H148.684C150.532 15.5564 152.122 15.9431 153.497 16.7166C154.829 17.4901 155.86 18.5215 156.505 19.8966C157.15 21.2287 157.493 22.6898 157.493 24.2798C157.493 25.8268 157.15 27.2878 156.462 28.62C155.775 29.9521 154.743 31.0264 153.411 31.7999C152.079 32.5734 150.489 33.0031 148.641 33.0031H142.41V32.8312H142.453ZM145.461 16.115V32.4445H148.641C150.016 32.4445 151.219 32.1007 152.208 31.3702C153.153 30.6826 153.927 29.6943 154.442 28.4051C154.958 27.1589 155.173 25.7838 155.173 24.2798C155.173 22.7757 154.915 21.4006 154.442 20.1544C153.927 18.9082 153.196 17.9199 152.208 17.2323C151.177 16.5018 150.016 16.115 148.641 16.115H145.461Z" fill="#CB9F59"/>
<path d="M157.279 32.831C157.494 32.7451 157.752 32.5732 157.966 32.3154C158.267 31.9716 158.439 31.6708 158.525 31.4559L165.572 15.2554H165.83L172.491 31.4559C172.706 31.9716 173.136 32.4443 173.78 32.874V33.0889H169.655V32.874C169.827 32.788 169.999 32.6591 170.085 32.4443C170.213 32.2294 170.299 32.0145 170.299 31.8427C170.299 31.7137 170.256 31.6278 170.213 31.4989L168.838 28.19H160.631L159.213 31.4989C159.127 31.7137 159.084 31.8856 159.084 32.0575C159.084 32.4443 159.256 32.7021 159.599 32.874V33.0889H157.279V32.831ZM168.581 27.5025L164.799 18.3494L160.845 27.5025H168.581Z" fill="#CB9F59"/>
<path d="M184.609 17.0604H184.394C183.75 16.4158 183.148 16.115 182.503 16.115H179.237V31.4132C179.237 32.0577 179.495 32.4875 180.054 32.8312V33.0461H176.229V32.8312C176.788 32.4875 177.046 32.0148 177.046 31.4132V16.115H173.737C173.393 16.115 173.049 16.201 172.706 16.4158C172.405 16.5877 172.104 16.8026 171.846 17.0604H171.631L172.061 15.5564H184.007L184.609 17.0604Z" fill="#CB9F59"/>
<path d="M186.328 32.8312C186.886 32.5304 187.144 32.1007 187.144 31.585V16.9745C187.144 16.4588 186.886 16.0721 186.328 15.7713V15.5564H197.457L197.887 17.0604H197.672C197.028 16.4158 196.426 16.115 195.782 16.115H189.25V22.1741H193.289C193.934 22.1741 194.406 21.8733 194.707 21.3147H194.922V23.5492H194.707C194.363 22.9906 193.891 22.7328 193.289 22.7328H189.25V32.4445H196.77C197.371 32.4445 198.016 32.1437 198.661 31.4991H198.876L198.446 33.0031H186.328V32.8312Z" fill="#CB9F59"/>
<path d="M116.841 23.5062H116.713C116.326 23.1194 115.982 22.9475 115.595 22.9475H113.704V31.8858C113.704 32.2725 113.876 32.5303 114.177 32.7022V32.8312H111.943V32.7022C112.286 32.4874 112.415 32.2295 112.415 31.8858V22.9475H110.482C110.267 22.9475 110.095 22.9905 109.88 23.1194C109.708 23.2483 109.536 23.3343 109.407 23.5062H109.278L109.536 22.6467H116.541L116.841 23.5062Z" fill="#CB9F59"/>
<path d="M117.83 32.7452C118.173 32.5733 118.302 32.2725 118.302 31.9287V23.5921C118.302 23.2483 118.13 22.9475 117.83 22.7756V22.6467H120.064V22.7756C119.763 22.9475 119.591 23.2483 119.591 23.5921V27.1158H124.275V23.5921C124.275 23.2483 124.104 22.9905 123.803 22.7756V22.6467H126.037V22.7756C125.694 22.9475 125.565 23.2054 125.565 23.5921V31.9287C125.565 32.3155 125.736 32.5733 126.037 32.7452V32.8741H123.803V32.7452C124.104 32.5733 124.275 32.2725 124.275 31.9287V27.4166H119.591V31.9287C119.591 32.2725 119.763 32.5733 120.064 32.7452V32.8741H117.83V32.7452Z" fill="#CB9F59"/>
<path d="M127.198 32.7452C127.542 32.5733 127.67 32.3155 127.67 32.0147V23.4632C127.67 23.1624 127.499 22.9475 127.198 22.7327V22.6038H133.73L133.987 23.4632H133.858C133.472 23.0765 133.128 22.9046 132.741 22.9046H128.917V26.4713H131.28C131.667 26.4713 131.925 26.2994 132.097 25.9986H132.226V27.2877H132.097C131.882 26.944 131.624 26.815 131.28 26.815H128.917V32.4874H133.3C133.644 32.4874 134.03 32.3155 134.417 31.9287H134.546L134.288 32.7882H127.198V32.7452Z" fill="#CB9F59"/>
<path d="M134.589 15.6421H109.321V15.9859H134.589V15.6421Z" fill="#CB9F59"/>
<g opacity="0.8">
<path d="M75.8457 43.746C75.9746 43.66 76.0606 43.5311 76.0606 43.4022V39.8355C76.0606 39.6636 75.9746 39.5776 75.8457 39.4917V39.4487H77.9943C78.2521 39.4487 78.467 39.5347 78.6389 39.7066C78.8108 39.8785 78.8967 40.0933 78.8967 40.3082C78.8967 40.4801 78.8108 40.652 78.6819 40.8238C78.553 40.9957 78.3811 41.0817 78.1662 41.1246C78.3811 41.1676 78.5959 41.2536 78.7678 41.3395C78.9397 41.4684 79.0686 41.6403 79.1975 41.8122C79.2835 42.0271 79.3694 42.199 79.3694 42.4568C79.3694 42.7146 79.3265 42.9295 79.1975 43.1443C79.0686 43.3592 78.8967 43.5311 78.6819 43.66C78.467 43.7889 78.2521 43.8319 77.9943 43.8319H75.8887V43.746H75.8457ZM76.6192 39.5347V41.0817H77.6076C77.8224 41.0817 77.9943 40.9957 78.1662 40.8668C78.2951 40.6949 78.3811 40.523 78.3811 40.3082C78.3811 40.0933 78.3381 39.8785 78.2092 39.7495C78.0803 39.6206 77.9084 39.5347 77.6505 39.5347H76.6192ZM78.5959 41.8552C78.467 41.6833 78.3381 41.5114 78.1662 41.4255C77.9943 41.2965 77.7795 41.2536 77.5646 41.2536H76.5762V43.703H77.5216C77.7795 43.703 77.9943 43.66 78.1662 43.5311C78.3381 43.4022 78.467 43.2733 78.5959 43.1014C78.6819 42.9295 78.7248 42.7146 78.7248 42.4998C78.7678 42.199 78.7248 42.0271 78.5959 41.8552Z" fill="black"/>
<path d="M81.647 43.746C81.7759 43.66 81.8618 43.5741 81.8618 43.4451V39.7925C81.8618 39.6636 81.7759 39.5776 81.647 39.4917V39.4487H84.4402L84.5691 39.8355H84.5261C84.3542 39.6636 84.2253 39.5776 84.0534 39.5776H82.4205V41.1246H83.4518C83.6237 41.1246 83.7526 41.0387 83.7956 40.9098H83.8386V41.4684H83.7956C83.7096 41.3395 83.5807 41.2536 83.4518 41.2536H82.4205V43.703H84.3113C84.4831 43.703 84.6121 43.617 84.7839 43.4451H84.8269L84.698 43.8319H81.647V43.746Z" fill="black"/>
<path d="M87.4053 40.6949C87.4913 40.7809 87.5772 40.9098 87.7061 40.9528C87.835 41.0387 88.0069 41.1247 88.2218 41.2106C88.5226 41.3395 88.7375 41.4684 88.8664 41.5544C89.0383 41.6833 89.1672 41.8122 89.2961 41.9841C89.425 42.156 89.468 42.3708 89.468 42.6287C89.468 42.8435 89.425 43.0584 89.2961 43.2303C89.1672 43.4022 89.0383 43.5741 88.8234 43.703C88.6085 43.8319 88.3937 43.8749 88.1358 43.8749C87.7921 43.8749 87.5342 43.8319 87.3623 43.746C87.1905 43.66 86.9756 43.5311 86.8467 43.4022V42.8865H86.8896C86.9756 43.0584 87.0615 43.1873 87.1475 43.2733C87.2334 43.3592 87.3623 43.4881 87.5342 43.5741C87.7061 43.66 87.921 43.746 88.1788 43.746C88.4796 43.746 88.6945 43.66 88.8664 43.5311C89.0383 43.3592 89.1242 43.1444 89.1242 42.8865C89.1242 42.7576 89.0812 42.6287 88.9953 42.4998C88.9093 42.4138 88.8234 42.2849 88.6945 42.199C88.5656 42.113 88.3937 42.0271 88.1788 41.9411C87.878 41.8122 87.7061 41.6833 87.5342 41.5973C87.3623 41.5114 87.2334 41.3395 87.1045 41.1676C86.9756 40.9957 86.9326 40.7809 86.9326 40.523C86.9326 40.3082 86.9756 40.0933 87.0615 39.9214C87.1475 39.7495 87.3194 39.6206 87.4913 39.5347C87.6632 39.4487 87.878 39.4058 88.0929 39.4058C88.2648 39.4058 88.3937 39.4487 88.6085 39.4917C88.8234 39.5347 88.9953 39.6206 89.1242 39.7066V40.2222H89.0812C88.9953 40.0503 88.8664 39.8785 88.6945 39.7495C88.5226 39.6206 88.3077 39.5347 88.0929 39.5347C87.835 39.5347 87.6631 39.6206 87.5342 39.7925C87.4053 39.9644 87.3194 40.1363 87.3194 40.3941C87.2764 40.4801 87.3194 40.566 87.4053 40.6949Z" fill="black"/>
<path d="M94.6242 39.5777C94.8391 39.7066 95.011 39.8785 95.1399 40.0933C95.2688 40.3082 95.3118 40.5231 95.3118 40.7809C95.3118 41.0387 95.2688 41.2536 95.1399 41.4685C95.011 41.6833 94.8391 41.8552 94.6672 41.9841C94.4524 42.113 94.2375 42.156 94.0226 42.156H92.6475V43.4452C92.6475 43.5311 92.6475 43.6171 92.6905 43.66C92.7335 43.703 92.7764 43.746 92.8194 43.789V43.8319H91.874V43.789C92.0029 43.703 92.0889 43.5741 92.0889 43.4452V39.8785C92.0889 39.7066 92.0029 39.6207 91.874 39.5347V39.4917H93.9797C94.1516 39.4058 94.4094 39.4488 94.6242 39.5777ZM94.1516 41.8122C94.3234 41.6833 94.4524 41.5544 94.5813 41.3825C94.6672 41.2106 94.7532 40.9958 94.7532 40.7809C94.7532 40.5231 94.7102 40.3512 94.6242 40.1793C94.5383 40.0074 94.4094 39.8355 94.1945 39.7496C94.0226 39.6207 93.8078 39.5777 93.5499 39.5777H92.6046V42.0271H93.5929C93.7648 41.9841 93.9797 41.9412 94.1516 41.8122Z" fill="black"/>
<path d="M101.028 39.6636C101.371 39.8785 101.629 40.1363 101.801 40.4801C101.973 40.8238 102.059 41.2106 102.059 41.5974C102.059 41.9841 101.973 42.3709 101.801 42.7146C101.629 43.0584 101.371 43.3162 101.028 43.5311C100.684 43.746 100.297 43.8319 99.8244 43.8319C99.3517 43.8319 98.922 43.746 98.6212 43.5311C98.2774 43.3162 98.0196 43.0584 97.8477 42.7146C97.6758 42.3709 97.5898 41.9841 97.5898 41.5974C97.5898 41.2106 97.6758 40.8238 97.8477 40.4801C98.0196 40.1363 98.2774 39.8785 98.6212 39.6636C98.965 39.4487 99.3517 39.3628 99.8244 39.3628C100.254 39.3628 100.684 39.4487 101.028 39.6636ZM100.684 43.4452C100.942 43.2733 101.114 43.0154 101.242 42.6717C101.371 42.3709 101.414 41.9841 101.414 41.5974C101.414 41.2106 101.371 40.8239 101.242 40.523C101.114 40.2222 100.942 39.9644 100.684 39.7495C100.426 39.5777 100.125 39.4487 99.7814 39.4487C99.4376 39.4487 99.1368 39.5347 98.879 39.7495C98.6212 39.9644 98.4493 40.1793 98.3204 40.523C98.1915 40.8239 98.1485 41.2106 98.1485 41.5974C98.1485 41.9841 98.1915 42.3279 98.3204 42.6717C98.4493 43.0154 98.6212 43.2303 98.879 43.4452C99.1368 43.617 99.4376 43.746 99.7814 43.746C100.125 43.703 100.426 43.617 100.684 43.4452Z" fill="black"/>
<path d="M104.336 43.746C104.465 43.66 104.551 43.5311 104.551 43.4022V39.8355C104.551 39.7066 104.465 39.5776 104.336 39.4917V39.4487H105.282V39.4917C105.153 39.5776 105.067 39.6636 105.067 39.8355V41.2536L106.571 39.7925C106.7 39.6636 106.743 39.5776 106.743 39.5347C106.743 39.4917 106.743 39.4917 106.7 39.4917V39.4487H107.302V39.4917C107.259 39.4917 107.173 39.5347 107.044 39.6206C106.915 39.7066 106.829 39.7925 106.743 39.8355L106.098 40.4801L106.227 40.8668C106.786 42.3279 107.087 43.1443 107.13 43.2733C107.173 43.4022 107.216 43.4881 107.302 43.5741C107.344 43.66 107.43 43.703 107.473 43.746V43.7889H107.173C107.001 43.7889 106.872 43.746 106.786 43.703C106.7 43.66 106.614 43.5741 106.571 43.4022L105.626 40.8668L105.024 41.5114V43.4022C105.024 43.5741 105.11 43.66 105.239 43.746V43.7889H104.293V43.746H104.336Z" fill="black"/>
<path d="M109.88 43.746C110.009 43.66 110.095 43.5741 110.095 43.4451V39.7925C110.095 39.6636 110.009 39.5776 109.88 39.4917V39.4487H112.673L112.802 39.8355H112.759C112.587 39.6636 112.458 39.5776 112.286 39.5776H110.653V41.1246H111.685C111.857 41.1246 111.986 41.0387 112.029 40.9098H112.071V41.4684H112.029C111.943 41.3395 111.814 41.2536 111.685 41.2536H110.653V43.703H112.544C112.716 43.703 112.845 43.617 113.017 43.4451H113.06L112.931 43.8319H109.88V43.746Z" fill="black"/>
<path d="M118.13 43.746C118.259 43.66 118.345 43.5311 118.345 43.4022V39.8355C118.345 39.7066 118.259 39.5776 118.13 39.4917V39.4487H119.076V39.4917C118.947 39.5776 118.861 39.7066 118.861 39.8355V43.4022C118.861 43.5741 118.947 43.66 119.076 43.746V43.7889H118.13V43.746Z" fill="black"/>
<path d="M124.791 39.7925V43.3592C124.791 43.5311 124.877 43.617 125.006 43.703V43.746H124.404V43.703C124.533 43.617 124.619 43.4881 124.619 43.3592V42.2849L121.912 40.0074V43.4022C121.912 43.5741 121.998 43.66 122.127 43.746V43.7889H121.525V43.746C121.654 43.66 121.74 43.5311 121.74 43.4022V39.8355C121.74 39.7066 121.654 39.5776 121.525 39.4917V39.4487H122.084L124.576 41.5544V39.8355C124.576 39.6636 124.49 39.5776 124.361 39.4917V39.4487H124.963V39.4917C124.834 39.5347 124.791 39.6636 124.791 39.7925Z" fill="black"/>
<path d="M131.494 39.4487C131.452 39.4487 131.366 39.4917 131.323 39.5777C131.28 39.6206 131.237 39.7066 131.194 39.7925L129.432 43.8749H129.346L127.67 39.7925C127.627 39.7066 127.584 39.6636 127.541 39.5777C127.498 39.5347 127.412 39.4487 127.369 39.4487V39.4058H128.4V39.4487C128.357 39.4487 128.315 39.4917 128.272 39.5347C128.229 39.5777 128.229 39.6206 128.229 39.7066C128.229 39.7495 128.229 39.7495 128.229 39.7925L129.561 43.0584L130.979 39.7925C130.979 39.7495 131.022 39.7066 131.022 39.6636C131.022 39.5777 130.979 39.4917 130.893 39.4487V39.4058H131.452V39.4487H131.494Z" fill="black"/>
<path d="M133.944 43.746C134.073 43.66 134.159 43.5311 134.159 43.4022V39.8355C134.159 39.7066 134.073 39.5776 133.944 39.4917V39.4487H134.89V39.4917C134.761 39.5776 134.675 39.7066 134.675 39.8355V43.4022C134.675 43.5741 134.761 43.66 134.89 43.746V43.7889H133.944V43.746Z" fill="black"/>
<path d="M140.519 39.7925H140.476C140.304 39.6206 140.175 39.5347 140.003 39.5347H139.187V43.4022C139.187 43.5741 139.273 43.66 139.402 43.746V43.7889H138.456V43.746C138.585 43.66 138.671 43.5311 138.671 43.4022V39.5347H137.855C137.769 39.5347 137.683 39.5777 137.597 39.6206C137.511 39.6636 137.468 39.7066 137.382 39.7925H137.339L137.468 39.4058H140.476L140.519 39.7925Z" fill="black"/>
<path d="M141.937 43.746C141.98 43.746 142.066 43.703 142.109 43.617C142.195 43.5311 142.238 43.4452 142.238 43.4022L144 39.3198H144.043L145.719 43.4022C145.762 43.5311 145.89 43.66 146.062 43.746V43.7889H145.031V43.746C145.074 43.746 145.117 43.703 145.16 43.617C145.203 43.5741 145.203 43.5311 145.203 43.4452C145.203 43.4022 145.203 43.4022 145.203 43.3592L144.859 42.5427H142.796L142.453 43.3592C142.41 43.4022 142.41 43.4452 142.41 43.4881C142.41 43.5741 142.453 43.66 142.539 43.703V43.746H141.98H141.937ZM144.773 42.4138L143.828 40.0933L142.839 42.4138H144.773Z" fill="black"/>
<path d="M150.703 39.7925H150.66C150.489 39.6206 150.36 39.5347 150.188 39.5347H149.371V43.4022C149.371 43.5741 149.457 43.66 149.586 43.746V43.7889H148.641V43.746C148.77 43.66 148.856 43.5311 148.856 43.4022V39.5347H148.039C147.953 39.5347 147.867 39.5777 147.781 39.6206C147.695 39.6636 147.652 39.7066 147.566 39.7925H147.523L147.652 39.4058H150.66L150.703 39.7925Z" fill="black"/>
<path d="M153.067 43.746C153.196 43.66 153.282 43.5311 153.282 43.4022V39.8355C153.282 39.7066 153.196 39.5776 153.067 39.4917V39.4487H154.012V39.4917C153.883 39.5776 153.797 39.7066 153.797 39.8355V43.4022C153.797 43.5741 153.883 43.66 154.012 43.746V43.7889H153.067V43.746Z" fill="black"/>
<path d="M159.899 39.6636C160.243 39.8785 160.501 40.1363 160.673 40.4801C160.845 40.8238 160.931 41.2106 160.931 41.5974C160.931 41.9841 160.845 42.3709 160.673 42.7146C160.501 43.0584 160.243 43.3162 159.899 43.5311C159.555 43.746 159.169 43.8319 158.696 43.8319C158.223 43.8319 157.794 43.746 157.493 43.5311C157.149 43.3162 156.891 43.0584 156.719 42.7146C156.547 42.3709 156.461 41.9841 156.461 41.5974C156.461 41.2106 156.547 40.8238 156.719 40.4801C156.891 40.1363 157.149 39.8785 157.493 39.6636C157.837 39.4487 158.223 39.3628 158.696 39.3628C159.126 39.3628 159.555 39.4487 159.899 39.6636ZM159.555 43.4452C159.813 43.2733 159.985 43.0154 160.114 42.6717C160.243 42.3709 160.286 41.9841 160.286 41.5974C160.286 41.2106 160.243 40.8239 160.114 40.523C159.985 40.2222 159.813 39.9644 159.555 39.7495C159.298 39.5777 158.997 39.4487 158.653 39.4487C158.309 39.4487 158.008 39.5347 157.751 39.7495C157.493 39.9644 157.321 40.1793 157.192 40.523C157.063 40.8239 157.02 41.2106 157.02 41.5974C157.02 41.9841 157.063 42.3279 157.192 42.6717C157.321 43.0154 157.493 43.2303 157.751 43.4452C158.008 43.617 158.309 43.746 158.653 43.746C158.997 43.703 159.298 43.617 159.555 43.4452Z" fill="black"/>
<path d="M166.474 39.7925V43.3592C166.474 43.5311 166.56 43.617 166.689 43.703V43.746H166.087V43.703C166.216 43.617 166.302 43.4881 166.302 43.3592V42.2849L163.595 40.0074V43.4022C163.595 43.5741 163.681 43.66 163.81 43.746V43.7889H163.208V43.746C163.337 43.66 163.423 43.5311 163.423 43.4022V39.8355C163.423 39.7066 163.337 39.5776 163.208 39.4917V39.4487H163.767L166.259 41.5544V39.8355C166.259 39.6636 166.173 39.5776 166.044 39.4917V39.4487H166.646V39.4917C166.517 39.5347 166.474 39.6636 166.474 39.7925Z" fill="black"/>
<path d="M169.611 40.6949C169.697 40.7809 169.783 40.9098 169.912 40.9528C170.041 41.0387 170.213 41.1247 170.427 41.2106C170.728 41.3395 170.943 41.4684 171.072 41.5544C171.244 41.6833 171.373 41.8122 171.502 41.9841C171.631 42.156 171.674 42.3708 171.674 42.6287C171.674 42.8435 171.631 43.0584 171.502 43.2303C171.373 43.4022 171.244 43.5741 171.029 43.703C170.814 43.8319 170.599 43.8749 170.341 43.8749C169.998 43.8749 169.74 43.8319 169.568 43.746C169.396 43.66 169.181 43.5311 169.052 43.4022V42.8865H169.095C169.181 43.0584 169.267 43.1873 169.353 43.2733C169.439 43.3592 169.568 43.4881 169.74 43.5741C169.912 43.66 170.127 43.746 170.384 43.746C170.685 43.746 170.9 43.66 171.072 43.5311C171.244 43.3592 171.33 43.1444 171.33 42.8865C171.33 42.7576 171.287 42.6287 171.201 42.4998C171.115 42.4138 171.029 42.2849 170.9 42.199C170.771 42.113 170.599 42.0271 170.384 41.9411C170.084 41.8122 169.912 41.6833 169.74 41.5973C169.568 41.5114 169.439 41.3395 169.31 41.1676C169.181 40.9957 169.138 40.7809 169.138 40.523C169.138 40.3082 169.181 40.0933 169.267 39.9214C169.353 39.7495 169.525 39.6206 169.697 39.5347C169.869 39.4487 170.084 39.4058 170.298 39.4058C170.47 39.4058 170.642 39.4487 170.814 39.4917C171.029 39.5347 171.201 39.6206 171.33 39.7066V40.2222H171.287C171.201 40.0503 171.072 39.8785 170.9 39.7495C170.728 39.6206 170.513 39.5347 170.298 39.5347C170.041 39.5347 169.869 39.6206 169.74 39.7925C169.611 39.9644 169.525 40.1363 169.525 40.3941C169.482 40.4801 169.525 40.566 169.611 40.6949Z" fill="black"/>
</g>
<path d="M35.4087 2.53558C34.0766 0.816687 31.885 -0.128703 29.6934 0.043186C28.2324 0.172103 26.6854 0.945603 25.8259 2.10585C25.1384 3.00827 24.7516 4.85608 25.74 5.58661C26.1267 5.88741 26.5564 5.97336 26.9862 5.84444C27.5448 5.67255 28.0605 5.15688 28.2753 4.5123C28.4043 4.16852 28.4472 3.7388 28.4902 3.2661C28.6621 2.06288 28.834 0.68777 30.338 0.601825C32.6585 0.472908 34.4633 1.46127 35.7955 3.65285C36.9557 5.58661 37.2565 7.99305 36.526 10.2276C36.2252 11.216 35.7525 12.1184 35.1079 12.9349C34.8071 13.3216 34.4633 13.6654 34.1196 14.0092C31.4553 16.3726 27.5878 16.8024 23.7633 15.1694C22.9038 14.7827 22.0444 14.31 21.2709 13.8373C20.4544 13.3646 19.6379 12.8489 18.7355 12.4622C18.2628 12.2473 17.7042 12.0754 17.1885 11.9465C17.0596 12.3762 16.9736 12.8489 16.9307 13.3216C17.0596 13.3646 17.1455 13.3646 17.2744 13.4076C18.3917 13.7513 19.466 14.267 20.5403 14.7397C21.2709 15.0835 22.0444 15.4273 22.8179 15.7281C26.0838 16.9743 31.0685 17.361 34.3774 14.3529C35.3228 13.4935 36.0963 12.3762 36.6119 11.0871C37.7722 7.99305 37.3855 5.11391 35.4087 2.53558Z" fill="#CB9F59"/>
<path d="M14.6103 44.2617C10.8717 43.8749 7.26207 42.0701 4.7267 39.3628C2.23431 36.6986 0.730285 33.1748 0.558396 29.4363C0.343535 25.6547 1.46081 22.0021 3.69537 19.1229C4.4259 18.1775 5.32832 17.2751 6.27371 16.5016C8.07854 14.9976 10.3561 13.8373 12.4617 13.3646L12.5477 12.9779C12.6336 12.5482 12.7625 12.1184 12.9344 11.7317C7.94962 12.4622 3.13673 16.6305 1.11704 21.8731C0.472452 23.592 0.0857013 25.4828 -0.000243163 27.3306C-0.172132 31.7138 1.37487 36.097 4.25401 39.3199C6.91829 42.3279 10.7428 44.2617 14.7392 44.6484C15.169 44.6914 15.6417 44.6914 16.1143 44.6914V44.3047C15.5987 44.3476 15.083 44.3047 14.6103 44.2617Z" fill="#CB9F59"/>
<path d="M29.307 35.839C28.1467 38.7611 25.8692 41.0386 23.2479 42.6716C22.9041 42.8864 22.5604 43.1013 22.2166 43.2732C22.1306 43.3161 21.1852 43.7029 21.1852 43.7888C21.1852 43.617 21.1852 43.4451 21.1852 43.2732C22.6033 42.4997 24.0214 41.6402 25.2246 40.5659C26.2989 39.6205 27.2443 38.4603 27.803 37.0852C28.8773 34.5068 28.7913 31.0261 27.2014 28.6626C26.256 27.2445 24.9238 26.1272 23.5487 25.1819C21.2712 23.5919 18.7788 22.3027 16.6302 20.5409C16.5442 20.4549 16.4583 20.4119 16.3724 20.326C16.2434 20.1971 16.1145 20.1111 15.9856 19.9822C15.8997 19.9392 15.8567 19.8533 15.7707 19.8103C15.7278 19.7674 15.6418 19.7244 15.5989 19.6384C15.5129 19.5525 15.4699 19.5095 15.384 19.4236L15.341 19.3806C15.298 19.3376 15.2551 19.2517 15.1691 19.2087C15.0832 19.1228 15.0402 19.0368 14.9543 18.9509C14.9113 18.9079 14.9113 18.9079 14.8683 18.8649C14.8683 18.8649 14.8683 18.822 14.8254 18.822C14.7394 18.693 14.6105 18.5641 14.5245 18.4352C13.6651 17.275 13.1494 15.9428 13.2354 14.3958C13.2354 14.3958 13.2354 14.3099 13.2354 14.181C13.2354 14.181 13.2354 14.181 13.2354 14.138C13.2354 14.138 13.2354 14.138 13.2354 14.095V14.052C13.2354 13.8372 13.2784 13.5364 13.3643 13.1496C13.4502 12.6769 13.6651 12.1183 13.9659 11.5597V11.5167C13.9659 11.5167 13.9659 11.4737 14.0089 11.4737C14.0089 11.4737 14.0089 11.4307 14.0519 11.4307C14.0519 11.4307 14.0519 11.4307 14.0519 11.3878C14.0519 11.3878 14.0519 11.3448 14.0948 11.3448C14.1378 11.2588 14.1808 11.2159 14.2237 11.1299L14.2667 11.087C14.3097 11.044 14.3097 11.001 14.3527 10.958C14.3527 10.9151 14.3956 10.9151 14.3956 10.8721C14.4386 10.8291 14.4386 10.7862 14.4816 10.7432C14.4816 10.7002 14.5245 10.7002 14.5245 10.6572C14.7394 10.3564 14.9972 10.0556 15.2551 9.75482C15.7707 9.23915 16.2864 8.8524 16.6732 8.63754C18.3491 7.82107 19.7672 7.52026 21.0134 7.52026C23.3768 7.52026 25.0527 8.68051 26.17 9.79779C26.4708 10.0556 27.0295 10.7002 27.3732 11.1729L27.5881 9.58293H27.9319V14.9115H27.4162V13.5364C27.4162 12.8488 27.2443 12.1613 26.8576 11.6026C26.8146 11.5597 26.7716 11.5167 26.7287 11.4737C25.9122 10.2705 23.9355 8.29376 21.1852 8.29376C20.7555 8.29376 20.2828 8.33674 19.8101 8.46565C18.478 8.76646 17.4467 9.36807 16.7591 10.4424C16.7591 10.4424 16.6302 10.6143 16.4583 10.958V11.001C16.4583 11.044 16.4153 11.087 16.4153 11.087C16.4153 11.1299 16.4153 11.1299 16.3724 11.1729C16.3724 11.1729 16.3724 11.2159 16.3294 11.2159V11.2588V11.3018C16.3294 11.3018 16.3294 11.3448 16.2864 11.3448C16.2864 11.3878 16.2434 11.4307 16.2434 11.4737C16.2005 11.5597 16.2005 11.6026 16.1575 11.6886V11.7315C16.1145 11.9034 16.0715 12.0323 16.0286 12.2042C16.0286 12.2472 15.9856 12.3332 15.9856 12.3761C15.9856 12.4191 15.9856 12.4621 15.9426 12.548C15.9426 12.591 15.9426 12.634 15.9426 12.6769C15.9426 12.7629 15.8997 12.8488 15.8997 12.8918C15.8997 12.9348 15.8997 12.9777 15.8997 13.0207C15.8997 13.1067 15.8997 13.1496 15.8997 13.2356C15.8997 13.2785 15.8997 13.3645 15.8997 13.4075C15.8997 13.4504 15.8997 13.5364 15.8997 13.5794C15.8997 13.7083 15.8997 13.8372 15.8997 13.9661C15.8997 14.0091 15.8997 14.052 15.8997 14.052V14.095C15.9426 15.3412 16.5872 16.3725 17.5326 17.275C17.6615 17.4039 17.8334 17.5328 17.9623 17.6617C18.0912 17.7477 18.2202 17.8766 18.3491 17.9625L18.392 18.0055C18.392 18.0055 18.435 18.0485 18.478 18.0485C18.6069 18.1344 18.7358 18.2204 18.8647 18.3063C18.9507 18.3493 19.0366 18.4352 19.1226 18.4782C19.1226 18.4782 19.1655 18.4782 19.1655 18.5212C19.2945 18.6071 19.4234 18.693 19.5523 18.779C19.6382 18.822 19.7242 18.8649 19.7672 18.9079C19.982 19.0368 20.1969 19.1657 20.4547 19.3376C20.8415 19.5525 21.2282 19.7674 21.615 20.0252C24.8379 21.873 28.0608 23.8067 29.5219 27.4594C30.4672 30.0807 30.4243 33.0888 29.307 35.839Z" fill="#CB9F59"/>
<path d="M13.0204 32.659C13.3212 33.0028 13.4501 33.4755 13.4071 33.9482C13.2782 34.8076 12.4617 35.4093 11.6452 35.4952C11.5593 35.4952 11.4304 35.4952 11.3444 35.4952C10.6139 35.4522 9.88339 35.1085 9.32475 34.6358C8.98097 34.3779 8.68016 34.0342 8.42233 33.6904C6.01588 30.4245 7.56288 25.9983 9.75447 23.0762C10.1842 22.4746 10.6999 21.9589 11.2155 21.4433C12.075 20.6268 13.0633 19.9393 14.0947 19.4236L14.1376 19.4666L14.1806 19.5095C14.2666 19.6384 14.3955 19.7244 14.4814 19.8533C12.7625 20.6698 11.3015 21.916 10.1842 23.463C8.938 25.0959 7.99261 27.0726 7.90666 29.1783C7.86369 30.1237 7.99261 31.3699 8.89502 31.9285C9.15286 32.1004 9.45366 32.1434 9.79744 32.1863C9.96933 32.1863 10.1842 32.1863 10.3561 32.1863C10.7428 32.1434 11.1726 32.0574 11.5593 32.1004C11.6452 32.1004 11.7312 32.1004 11.8601 32.1434C12.3328 32.1004 12.7625 32.3153 13.0204 32.659Z" fill="#CB9F59"/>
<path d="M37.2997 33.7335C37.2997 35.0656 37.0849 36.3978 36.6551 37.7299C36.5692 38.0307 36.4833 38.3315 36.4403 38.5464H36.3973C34.4636 43.5741 29.6507 48.0003 23.5056 48.0003H14.2236V47.4846H15.5987C16.4152 47.4846 17.0598 46.926 17.0598 46.1954V28.7057C17.0598 27.9752 16.4152 27.4166 15.5987 27.4166H14.2236V26.9009H23.2478V27.4166H21.7008C20.8843 27.4166 20.2397 27.9752 20.2397 28.7057V46.1954C20.2397 46.926 20.8843 47.4846 21.7008 47.4846H23.4627C27.6739 47.4846 34.1198 43.3163 34.1198 33.5186C34.1198 32.4873 34.0338 31.4989 33.9049 30.5535V30.5106C33.4322 27.5884 32.3579 24.7093 30.3812 22.4747C28.1037 19.7675 24.5799 18.3924 21.0562 18.3924C20.9273 18.3924 20.7554 18.3924 20.6265 18.3924C20.4976 18.3064 20.3257 18.2205 20.1968 18.1345C20.1108 18.0916 20.0249 18.0486 19.9819 18.0056C19.896 17.9627 19.81 17.9197 19.7671 17.8767C20.2827 17.8337 20.8414 17.7908 21.357 17.7908C21.4859 17.7908 21.5719 17.7908 21.7008 17.7908C22.0446 17.7908 22.3884 17.8337 22.7321 17.8337C24.1502 17.9627 25.5253 18.2635 26.8575 18.7791C30.2953 20.0253 33.5611 22.4318 35.409 25.6547C36.7411 27.9752 37.2138 30.3816 37.2568 32.4873C37.2568 32.917 37.2997 33.3038 37.2997 33.7335Z" fill="#CB9F59"/>
</g>
<defs>
<clipPath id="clip0_480_51341">
<rect width="198.919" height="48" fill="white"/>
</clipPath>
</defs>
</svg>
