<svg width="21" height="20" viewBox="0 0 21 20" fill="none" xmlns="http://www.w3.org/2000/svg">
<path d="M14.4168 15.8168H6.5835C6.2335 15.8168 5.84183 15.5418 5.72517 15.2085L2.27517 5.55846C1.7835 4.17513 2.3585 3.75013 3.54183 4.60013L6.79183 6.92513C7.3335 7.30013 7.95017 7.10846 8.1835 6.50013L9.65017 2.5918C10.1168 1.3418 10.8918 1.3418 11.3585 2.5918L12.8252 6.50013C13.0585 7.10846 13.6752 7.30013 14.2085 6.92513L17.2585 4.75013C18.5585 3.8168 19.1835 4.2918 18.6502 5.80013L15.2835 15.2251C15.1585 15.5418 14.7668 15.8168 14.4168 15.8168Z" stroke="#23272A" stroke-width="1.25" stroke-linecap="round" stroke-linejoin="round"/>
<path d="M5.9165 18.333H15.0832" stroke="#23272A" stroke-width="1.25" stroke-linecap="round" stroke-linejoin="round"/>
<path d="M8.4165 11.667H12.5832" stroke="#23272A" stroke-width="1.25" stroke-linecap="round" stroke-linejoin="round"/>
</svg>
