<svg xmlns="http://www.w3.org/2000/svg" width="22" height="22" viewBox="0 0 22 22" fill="none">
    <g clip-path="url(#clip0_1646_5784)">
        <path
            d="M21.0283 0.971725C20.4051 0.349488 19.5605 0 18.6798 0C17.7992 0 16.9545 0.349488 16.3313 0.971725L0 17.3031V22.0001H4.697L21.0283 5.66872C21.6503 5.04541 21.9997 4.2008 21.9997 3.32022C21.9997 2.43965 21.6503 1.59504 21.0283 0.971725ZM3.94167 20.1667H1.83333V18.0584L14.0342 5.86672L16.1425 7.97506L3.94167 20.1667ZM19.7322 4.37256L17.4341 6.67064L15.3303 4.56231L17.6275 2.26789C17.9071 1.98831 18.2863 1.83124 18.6817 1.83124C19.0771 1.83124 19.4563 1.98831 19.7358 2.26789C20.0154 2.54747 20.1725 2.92667 20.1725 3.32206C20.1725 3.71745 20.0154 4.09664 19.7358 4.37622L19.7322 4.37256Z"
            fill="black" />
    </g>
    <defs>
        <clipPath id="clip0_1646_5784">
            <rect width="22" height="22" fill="white" />
        </clipPath>
    </defs>
</svg>