<svg xmlns="http://www.w3.org/2000/svg" width="36" height="17" viewBox="0 0 36 17" fill="none">
    <line x1="0.5" y1="1.44531" x2="11.1216" y2="1.44531" stroke="#313131" stroke-linecap="round" />
    <line x1="0.5" y1="10.9062" x2="11.1216" y2="10.9062" stroke="#313131" stroke-linecap="round" />
    <line x1="0.5" y1="6.17578" x2="11.1216" y2="6.17578" stroke="#313131" stroke-linecap="round" />
    <path
        d="M17.3809 0.646447C17.1856 0.451184 16.8691 0.451184 16.6738 0.646447L13.4918 3.82843C13.2965 4.02369 13.2965 4.34027 13.4918 4.53553C13.6871 4.7308 14.0037 4.7308 14.1989 4.53553L17.0273 1.70711L19.8558 4.53553C20.051 4.7308 20.3676 4.7308 20.5629 4.53553C20.7581 4.34027 20.7581 4.02369 20.5629 3.82843L17.3809 0.646447ZM16.6738 16.4887C16.8691 16.684 17.1856 16.684 17.3809 16.4887L20.5629 13.3067C20.7581 13.1114 20.7581 12.7949 20.5629 12.5996C20.3676 12.4043 20.051 12.4043 19.8558 12.5996L17.0273 15.428L14.1989 12.5996C14.0037 12.4043 13.6871 12.4043 13.4918 12.5996C13.2965 12.7949 13.2965 13.1114 13.4918 13.3067L16.6738 16.4887ZM16.5273 1L16.5273 16.1351L17.5273 16.1351L17.5273 1L16.5273 1Z"
        fill="#313131" />
    <line x1="0.5" y1="15.6348" x2="11.1216" y2="15.6348" stroke="#313131" stroke-linecap="round" />
    <path
        d="M27.4326 6.67578L30.5093 9.75246C30.8998 10.143 31.533 10.143 31.9235 9.75246L35.0002 6.67578"
        stroke="#313131" stroke-linecap="round" stroke-linejoin="round" />
</svg>