<svg xmlns="http://www.w3.org/2000/svg" width="10" height="10" viewBox="0 0 10 10" fill="none">
    <path
        d="M1 0.5C0.723858 0.5 0.5 0.723858 0.5 1L0.5 5.5C0.5 5.77614 0.723858 6 1 6C1.27614 6 1.5 5.77614 1.5 5.5L1.5 1.5L5.5 1.5C5.77614 1.5 6 1.27614 6 1C6 0.723858 5.77614 0.5 5.5 0.5L1 0.5ZM9 9.5C9.27614 9.5 9.5 9.27614 9.5 9L9.5 4.5C9.5 4.22386 9.27614 4 9 4C8.72386 4 8.5 4.22386 8.5 4.5L8.5 8.5L4.5 8.5C4.22386 8.5 4 8.72386 4 9C4 9.27614 4.22386 9.5 4.5 9.5L9 9.5ZM0.646447 1.35355L8.64645 9.35355L9.35355 8.64645L1.35355 0.646447L0.646447 1.35355Z"
        fill="black" />
</svg>