<svg xmlns="http://www.w3.org/2000/svg" width="17" height="16" viewBox="0 0 17 16" fill="none">
    <path
        d="M15.7821 0.776934C15.3314 0.326956 14.7206 0.0742188 14.0838 0.0742188C13.4469 0.0742188 12.8361 0.326956 12.3854 0.776934L0.575195 12.5871V15.9838H3.97189L15.7821 4.17363C16.2319 3.72287 16.4845 3.11208 16.4845 2.47528C16.4845 1.83848 16.2319 1.22769 15.7821 0.776934ZM3.42566 14.658H1.90099V13.1334L10.7242 4.31681L12.2488 5.84148L3.42566 14.658ZM14.8448 3.23629L13.1829 4.89818L11.6615 3.37351L13.3227 1.71427C13.5249 1.51209 13.7991 1.3985 14.0851 1.3985C14.371 1.3985 14.6452 1.51209 14.8474 1.71427C15.0496 1.91646 15.1632 2.19068 15.1632 2.47661C15.1632 2.76254 15.0496 3.03676 14.8474 3.23894L14.8448 3.23629Z"
        fill="black" />
</svg>