<svg xmlns="http://www.w3.org/2000/svg" width="14" height="19" viewBox="0 0 14 19" fill="none">
    <path
        d="M7.092 0V1.332H1.638V5.562H6.065V6.894H1.638V12.546H0V0H7.092ZM4.408 18.018C3.892 18.018 3.418 17.838 2.986 17.478C2.554 17.118 2.338 16.626 2.338 16.002C2.338 15.93 2.356 15.894 2.392 15.894C2.44 15.894 2.482 15.96 2.518 16.092C2.782 17.004 3.37 17.46 4.282 17.46C5.566 17.46 6.826 15.948 8.062 12.924L8.152 12.654C8.188 12.594 8.23 12.504 8.278 12.384C8.326 12.252 8.392 12.048 8.476 11.772C8.572 11.496 8.71 11.106 8.89 10.602L9.718 8.208C9.142 8.04 8.854 7.704 8.854 7.2C8.854 7.092 8.884 7.038 8.944 7.038L9.862 7.2H9.97C10.03 7.2 10.072 7.182 10.096 7.146C10.228 6.966 10.318 6.75 10.366 6.498C10.594 5.79 10.804 5.19 10.996 4.698C11.2 4.206 11.392 3.822 11.572 3.546C11.956 2.982 12.418 2.7 12.958 2.7C13.234 2.7 13.474 2.778 13.678 2.934C13.7733 3.00079 13.851 3.08976 13.9043 3.19324C13.9576 3.29671 13.985 3.4116 13.984 3.528C13.984 4.104 13.798 4.392 13.426 4.392C13.306 4.392 13.246 4.356 13.246 4.284C13.342 4.068 13.39 3.81 13.39 3.51C13.39 3.186 13.3 3.024 13.12 3.024C12.76 3.024 12.316 3.54 11.788 4.572C11.752 4.656 11.698 4.77 11.626 4.914C11.566 5.058 11.452 5.37 11.284 5.85C11.044 6.534 10.924 6.906 10.924 6.966C10.924 7.086 11.002 7.146 11.158 7.146L13.444 7.092C13.48 7.092 13.498 7.116 13.498 7.164C12.682 7.44 12.022 7.662 11.518 7.83C11.026 7.986 10.684 8.088 10.492 8.136C10.492 8.184 10.45 8.334 10.366 8.586C10.282 8.826 10.138 9.282 9.934 9.954C9.49 11.406 9.058 12.636 8.638 13.644C8.218 14.664 7.786 15.492 7.342 16.128C6.466 17.388 5.488 18.018 4.408 18.018Z"
        fill="black" />
</svg>